<?xml version="1.0" standalone="no"?><!DOCTYPE svg PUBLIC "-//W3C//DTD SVG 1.1//EN" "http://www.w3.org/Graphics/SVG/1.1/DTD/svg11.dtd"><svg t="1626916009182" class="icon" viewBox="0 0 1024 1024" version="1.1" xmlns="http://www.w3.org/2000/svg" p-id="4985" xmlns:xlink="http://www.w3.org/1999/xlink" width="200" height="200"><defs><style type="text/css">@font-face { font-family: feedback-iconfont; src: url("//at.alicdn.com/t/font_1031158_1uhr8ri0pk5.eot?#iefix") format("embedded-opentype"), url("//at.alicdn.com/t/font_1031158_1uhr8ri0pk5.woff2") format("woff2"), url("//at.alicdn.com/t/font_1031158_1uhr8ri0pk5.woff") format("woff"), url("//at.alicdn.com/t/font_1031158_1uhr8ri0pk5.ttf") format("truetype"), url("//at.alicdn.com/t/font_1031158_1uhr8ri0pk5.svg#iconfont") format("svg"); }
</style></defs><path d="M791.273 23.273H232.727c-65.163 0-116.363 51.2-116.363 116.363v6.982c0-51.2 41.89-93.09 93.09-93.09 9.31 0 16.291 2.327 25.6 4.654l44.219 11.636h512c39.563 0 69.818 30.255 69.818 69.818v651.637c0 39.563-30.255 69.818-69.818 69.818h-93.091V258.327c0-41.89-27.927-79.127-67.491-88.436L235.055 58.18c-9.31-4.654-16.291-4.654-25.6-4.654-51.2 0-93.091 41.891-93.091 93.091v688.873c0 44.218 30.254 81.454 72.145 90.764l395.636 95.418c6.982 2.327 13.964 2.327 20.946 2.327 51.2 0 93.09-41.89 93.09-93.09v-23.274h93.092c65.163 0 116.363-51.2 116.363-116.363V139.636c0-65.163-51.2-116.363-116.363-116.363zM651.636 928.582c0 25.6-20.945 46.545-46.545 46.545-4.655 0-6.982 0-11.636-2.327l-395.637-95.418c-20.945-4.655-34.909-23.273-34.909-44.218V146.618c0-25.6 20.946-46.545 46.546-46.545 4.654 0 9.309 0 11.636 2.327l395.636 111.71c20.946 4.654 34.91 23.272 34.91 44.217v670.255z" fill="#bfbfbf" p-id="4986"></path><path d="M512 442.182h46.545v232.727H512z" fill="#bfbfbf" p-id="4987"></path></svg>