<?xml version="1.0" standalone="no"?><!DOCTYPE svg PUBLIC "-//W3C//DTD SVG 1.1//EN" "http://www.w3.org/Graphics/SVG/1.1/DTD/svg11.dtd"><svg t="1626915901763" class="icon" viewBox="0 0 1024 1024" version="1.1" xmlns="http://www.w3.org/2000/svg" p-id="2887" xmlns:xlink="http://www.w3.org/1999/xlink" width="200" height="200"><defs><style type="text/css">@font-face { font-family: feedback-iconfont; src: url("//at.alicdn.com/t/font_1031158_1uhr8ri0pk5.eot?#iefix") format("embedded-opentype"), url("//at.alicdn.com/t/font_1031158_1uhr8ri0pk5.woff2") format("woff2"), url("//at.alicdn.com/t/font_1031158_1uhr8ri0pk5.woff") format("woff"), url("//at.alicdn.com/t/font_1031158_1uhr8ri0pk5.ttf") format("truetype"), url("//at.alicdn.com/t/font_1031158_1uhr8ri0pk5.svg#iconfont") format("svg"); }
</style></defs><path d="M893.098667 474.794667H887.466667v-58.88a73.045333 73.045333 0 0 0-72.874667-72.874667 71.509333 71.509333 0 0 0-21.845333 3.754667v-17.066667a88.576 88.576 0 1 0-177.152 0v145.408h-169.472V329.386667a88.576 88.576 0 1 0-177.152 0v17.066666a71.338667 71.338667 0 0 0-21.674667-3.754666 72.874667 72.874667 0 0 0-72.874667 72.874666v58.88h-5.973333a72.874667 72.874667 0 0 0 0 145.749334h5.973333v94.72a72.874667 72.874667 0 0 0 72.874667 72.874666 76.8 76.8 0 0 0 21.674667-2.730666v17.066666a88.576 88.576 0 0 0 177.152 0V620.544h169.301333V802.133333a88.576 88.576 0 1 0 177.152 0v-17.066666a71.509333 71.509333 0 0 0 21.845333 3.754666A72.874667 72.874667 0 0 0 887.466667 715.264v-94.72h5.802666a72.874667 72.874667 0 1 0 0-145.749333zM168.448 569.344a21.674667 21.674667 0 0 1 0-43.349333h5.973333v43.349333z m78.848 167.594667a21.674667 21.674667 0 0 1-21.674667-21.674667V415.914667a21.674667 21.674667 0 1 1 43.349334 0v299.349333a21.674667 21.674667 0 0 1-21.674667 21.674667zM394.922667 802.133333a37.376 37.376 0 0 1-74.752 0V329.386667a37.376 37.376 0 1 1 74.752 0z m51.2-232.618666v-43.52h169.301333v43.349333zM741.376 802.133333a37.376 37.376 0 1 1-74.752 0V329.386667a37.376 37.376 0 1 1 74.752 0zM836.266667 715.264a21.674667 21.674667 0 0 1-43.349334 0V415.914667a21.674667 21.674667 0 0 1 43.349334 0z m57.002666-145.92H887.466667v-43.349333h5.802666a21.674667 21.674667 0 0 1 0 43.349333z" p-id="2888" fill="#bfbfbf"></path></svg>