<?xml version="1.0" standalone="no"?><!DOCTYPE svg PUBLIC "-//W3C//DTD SVG 1.1//EN" "http://www.w3.org/Graphics/SVG/1.1/DTD/svg11.dtd"><svg t="1626401145797" class="icon" viewBox="0 0 1024 1024" version="1.1" xmlns="http://www.w3.org/2000/svg" p-id="3924" xmlns:xlink="http://www.w3.org/1999/xlink" width="200" height="200"><defs><style type="text/css"></style></defs><path d="M512 870.4c-98.679467 0-183.995733-35.259733-253.559467-104.840533S153.6 610.679467 153.6 512s35.2768-183.995733 104.840533-253.559467S413.320533 153.6 512 153.6s183.995733 35.2768 253.559467 104.840533S870.4 413.320533 870.4 512s-35.259733 183.978667-104.840533 253.559467S610.679467 870.4 512 870.4z m0-682.666667c-89.2928 0-166.485333 31.914667-229.4272 94.839467S187.733333 422.7072 187.733333 512s31.914667 166.485333 94.839467 229.4272C345.514667 804.369067 422.7072 836.266667 512 836.266667s166.485333-31.8976 229.4272-94.839467C804.369067 678.485333 836.266667 601.2928 836.266667 512s-31.8976-166.485333-94.839467-229.4272C678.485333 219.648 601.2928 187.733333 512 187.733333z m170.666667 426.666667c-27.904 0-52.343467-10.308267-72.6528-30.600533C590.2848 564.087467 580.266667 539.921067 580.266667 512c0-27.818667 9.949867-52.189867 29.5424-72.448C630.4768 419.549867 654.865067 409.6 682.666667 409.6c27.921067 0 52.0704 10.001067 71.799466 29.7472C774.7584 459.656533 785.066667 484.096 785.066667 512c0 28.023467-10.359467 52.258133-30.805334 72.004267C734.9248 604.040533 710.690133 614.4 682.666667 614.4z m0-170.666667c-18.8928 0-34.833067 6.519467-48.708267 19.950934C620.919467 477.149867 614.4 493.090133 614.4 512c0 18.807467 6.468267 34.389333 19.746133 47.6672C648.021333 573.525333 663.876267 580.266667 682.666667 580.266667c18.670933 0 34.2016-6.673067 47.4624-20.394667C744.260267 546.2016 750.933333 530.670933 750.933333 512c0-18.7904-6.741333-34.645333-20.599466-48.520533C717.056 450.184533 701.457067 443.733333 682.666667 443.733333zM341.333333 614.4c-27.904 0-52.343467-10.308267-72.6528-30.600533C248.9344 564.0704 238.933333 539.921067 238.933333 512c0-27.8016 9.949867-52.1728 29.5424-72.448C289.160533 419.549867 313.531733 409.6 341.333333 409.6c27.921067 0 52.0704 10.001067 71.816534 29.7472C433.442133 459.656533 443.733333 484.096 443.733333 512c0 28.023467-10.359467 52.258133-30.805333 72.004267C393.5744 604.040533 369.3568 614.4 341.333333 614.4z m0-170.666667c-18.8928 0-34.850133 6.519467-48.708266 19.950934C279.586133 477.149867 273.066667 493.1072 273.066667 512c0 18.7904 6.4512 34.389333 19.746133 47.6672C306.688 573.525333 322.542933 580.266667 341.333333 580.266667c18.670933 0 34.184533-6.673067 47.4624-20.394667C402.926933 546.2016 409.6 530.670933 409.6 512c0-18.7904-6.741333-34.645333-20.599467-48.520533C375.722667 450.184533 360.123733 443.733333 341.333333 443.733333z" p-id="3925" fill="#bfbfbf"></path><path d="M853.333333 972.8H170.666667c-75.9296 0-119.466667-43.554133-119.466667-119.466667V170.666667c0-75.9296 43.537067-119.466667 119.466667-119.466667h682.666666c75.912533 0 119.466667 43.537067 119.466667 119.466667v682.666666c0 75.912533-43.554133 119.466667-119.466667 119.466667zM170.666667 119.466667c-37.802667 0-51.2 13.397333-51.2 51.2v682.666666c0 37.802667 13.397333 51.2 51.2 51.2h682.666666c37.802667 0 51.2-13.397333 51.2-51.2V170.666667c0-37.802667-13.397333-51.2-51.2-51.2H170.666667z" p-id="3926" fill="#bfbfbf"></path></svg>