<?xml version="1.0" standalone="no"?><!DOCTYPE svg PUBLIC "-//W3C//DTD SVG 1.1//EN" "http://www.w3.org/Graphics/SVG/1.1/DTD/svg11.dtd"><svg t="1626915954853" class="icon" viewBox="0 0 1133 1024" version="1.1" xmlns="http://www.w3.org/2000/svg" p-id="3907" xmlns:xlink="http://www.w3.org/1999/xlink" width="221.2890625" height="200"><defs><style type="text/css">@font-face { font-family: feedback-iconfont; src: url("//at.alicdn.com/t/font_1031158_1uhr8ri0pk5.eot?#iefix") format("embedded-opentype"), url("//at.alicdn.com/t/font_1031158_1uhr8ri0pk5.woff2") format("woff2"), url("//at.alicdn.com/t/font_1031158_1uhr8ri0pk5.woff") format("woff"), url("//at.alicdn.com/t/font_1031158_1uhr8ri0pk5.ttf") format("truetype"), url("//at.alicdn.com/t/font_1031158_1uhr8ri0pk5.svg#iconfont") format("svg"); }
</style></defs><path d="M0 414.171429c0 59.318857 45.001143 108.726857 105.709714 122.989714V955.794286H35.236571c-19.419429 0-35.236571 14.262857-35.236571 31.872 0 17.609143 15.817143 31.853714 35.236571 31.853714H1092.388571c19.547429 0 35.236571-14.262857 35.236572-31.853714s-15.689143-31.853714-35.236572-31.853715h-70.473142V537.161143c60.708571-14.262857 105.709714-63.670857 105.709714-122.971429v-31.853714H0v31.853714z m704.749714 127.451428c77.915429 0 140.946286-57.051429 140.946286-127.451428 0 59.318857 45.019429 108.726857 105.728 122.989714V955.794286H422.857143v-414.171429c77.897143 0 140.946286-57.069714 140.946286-127.451428 0 70.381714 63.158857 127.451429 140.946285 127.451428z m-317.129143-4.461714V955.794286H176.182857V537.161143c60.708571-14.262857 105.709714-63.670857 105.709714-122.971429 0 59.300571 45.019429 108.708571 105.728 122.971429z m599.04-441.581714H140.946286L0 350.464h1127.606857L986.660571 95.579429zM297.728 166.4l-70.473143 127.451429a18.048 18.048 0 0 1-15.835428 8.813714c-2.596571 0-5.302857-0.475429-7.826286-1.664-8.667429-3.913143-12.251429-13.531429-7.844572-21.357714l70.473143-127.451429c4.388571-7.826286 14.921143-10.989714 23.606857-7.131429 8.722286 3.913143 12.16 13.494857 7.899429 21.339429z m140.946286 0l-70.473143 127.451429a18.048 18.048 0 0 1-15.817143 8.813714c-2.614857 0-5.302857-0.475429-7.844571-1.664-8.667429-3.913143-12.251429-13.531429-7.844572-21.357714l70.491429-127.451429c4.388571-7.826286 14.994286-10.989714 23.588571-7.131429 8.722286 3.913143 12.16 13.494857 7.899429 21.339429z m142.756571 120.356571c0 8.832-7.862857 15.926857-17.627428 15.926858-9.709714 0-17.627429-7.076571-17.627429-15.926858v-127.451428c0-8.832 7.917714-15.926857 17.627429-15.926857 9.764571 0 17.627429 7.076571 17.627428 15.926857v127.451428z m202.331429 13.933715c-2.742857 1.371429-5.632 2.011429-8.539429 2.011428-6.198857 0-12.251429-2.998857-15.396571-8.283428l-77.092572-127.451429c-4.681143-7.716571-1.517714-17.408 7.003429-21.577143 8.411429-4.224 19.273143-1.499429 23.954286 6.272l77.092571 127.451429c4.534857 7.68 1.517714 17.408-7.021714 21.577143z m140.269714 0.310857a17.938286 17.938286 0 0 1-7.862857 1.664c-6.454857 0-12.653714-3.236571-15.689143-8.832L830.006857 166.4c-4.388571-7.826286-0.822857-17.408 7.844572-21.339429 8.557714-3.894857 19.254857-0.731429 23.68 7.168l70.473142 127.451429c4.260571 7.826286 0.841143 17.426286-7.972571 21.339429zM299.538286 769.462857v-73.398857c-10.349714-5.613714-17.627429-15.305143-17.627429-26.989714 0-17.627429 15.817143-31.872 35.236572-31.872 19.529143 0 35.236571 14.262857 35.236571 31.872 0 11.684571-7.241143 21.394286-17.627429 27.008v73.417143c10.386286 5.613714 17.627429 15.323429 17.627429 27.026285 0 17.609143-15.707429 31.853714-35.236571 31.853715-19.419429 0-35.236571-14.262857-35.236572-31.853715 0-11.702857 7.277714-21.430857 17.627429-27.062857zM140.946286 31.872C140.946286 14.262857 156.781714 0 176.182857 0h775.241143c19.547429 0 35.236571 14.244571 35.236571 31.853714S970.971429 63.707429 951.405714 63.707429H176.182857c-19.401143 0.018286-35.236571-14.244571-35.236571-31.853715z m476.672 680.338286l-24.905143-22.528 99.657143-90.112 24.905143 22.528-99.657143 90.112z m0 90.112l-24.905143-22.528 199.314286-180.224 24.868571 22.528-199.277714 180.224z m174.409143-112.64l24.905142 22.528-99.657142 90.112-24.905143-22.528 99.657143-90.112z" p-id="3908" fill="#bfbfbf"></path></svg>